# Blender v2.77 (sub 0) OBJ File: 'ShooterTentacle.blend'
# www.blender.org
mtllib ShooterTentacle.mtl
o Cylinder.004
v -0.070711 -0.750000 -0.070711
v -0.070711 0.750000 -0.070711
v 0.070711 -0.750000 -0.070711
v 0.070711 0.750000 -0.070711
v 0.070711 -0.750000 0.070711
v 0.070711 0.750000 0.070711
v -0.070711 -0.750000 0.070711
v -0.070711 0.750000 0.070711
vn 0.0000 0.0000 -1.0000
vn 1.0000 0.0000 0.0000
vn 0.0000 1.0000 0.0000
vn -0.0000 0.0000 1.0000
vn -1.0000 0.0000 0.0000
vn 0.0000 -1.0000 0.0000
usemtl None
s off
f 1//1 2//1 4//1 3//1
f 3//2 4//2 6//2 5//2
f 4//3 2//3 8//3 6//3
f 5//4 6//4 8//4 7//4
f 7//5 8//5 2//5 1//5
f 1//6 3//6 5//6 7//6
