# Blender v2.77 (sub 0) OBJ File: 'ShooterEye.blend'
# www.blender.org
mtllib ShooterEye.mtl
o Eye_Sphere
v -0.005443 -0.099333 0.397054
v -0.005443 -0.099333 0.297054
v 0.053336 -0.080235 0.397054
v 0.053336 -0.080235 0.297054
v 0.089663 -0.030235 0.397054
v 0.089663 -0.030235 0.297054
v 0.089663 0.031568 0.397054
v 0.089663 0.031568 0.297054
v 0.053336 0.081568 0.397054
v 0.053336 0.081568 0.297054
v -0.005443 0.100667 0.397054
v -0.005443 0.100667 0.297054
v -0.064221 0.081568 0.397054
v -0.064221 0.081568 0.297054
v -0.100548 0.031568 0.397054
v -0.100548 0.031568 0.297054
v -0.100548 -0.030235 0.397054
v -0.100548 -0.030235 0.297054
v -0.064221 -0.080235 0.397054
v -0.064221 -0.080235 0.297054
v -0.275066 -0.076478 0.184635
v -0.105066 -0.123744 0.298745
v 0.105066 -0.123744 0.298745
v -0.275066 -0.184635 0.076478
v -0.105066 -0.298745 0.123744
v 0.105066 -0.298745 0.123744
v 0.275066 -0.184635 0.076478
v -0.275066 -0.184635 -0.076478
v -0.105066 -0.298745 -0.123744
v 0.105066 -0.298745 -0.123744
v 0.275066 -0.184635 -0.076478
v -0.275066 -0.076478 -0.184635
v -0.105066 -0.123744 -0.298745
v 0.105066 -0.123744 -0.298745
v 0.275066 -0.076478 -0.184635
v 0.340000 0.000000 -0.000000
v -0.275066 0.076478 -0.184635
v -0.105066 0.123744 -0.298745
v 0.105066 0.123744 -0.298745
v 0.275066 0.076478 -0.184635
v -0.275066 0.184635 -0.076478
v -0.105066 0.298745 -0.123744
v 0.105066 0.298745 -0.123744
v 0.275066 0.184635 -0.076478
v -0.340000 0.000000 -0.000000
v -0.275066 0.184635 0.076478
v -0.105066 0.298745 0.123744
v 0.105066 0.298745 0.123744
v 0.275066 0.184635 0.076478
v -0.275066 0.076478 0.184635
v -0.105066 0.123744 0.298745
v 0.105066 0.123744 0.298745
v 0.275066 0.076478 0.184635
v 0.275066 -0.076478 0.184635
vn 0.3090 -0.9511 0.0000
vn 0.8090 -0.5878 0.0000
vn 1.0000 0.0000 0.0000
vn 0.8090 0.5878 0.0000
vn 0.3090 0.9511 0.0000
vn -0.3090 0.9511 0.0000
vn -0.8090 0.5878 0.0000
vn -1.0000 0.0000 -0.0000
vn 0.0000 0.0000 -1.0000
vn -0.8090 -0.5878 -0.0000
vn -0.3090 -0.9511 -0.0000
vn -0.0000 0.0000 1.0000
vn 0.9434 -0.2346 0.2346
vn 0.0000 -0.7071 0.7071
vn -0.9434 -0.2346 0.2346
vn 0.5573 -0.5871 0.5871
vn -0.5573 -0.5871 0.5871
vn 0.9434 -0.3318 0.0000
vn 0.0000 -1.0000 -0.0000
vn -0.9434 -0.3318 0.0000
vn 0.5573 -0.8303 0.0000
vn -0.5573 -0.8303 -0.0000
vn 0.9434 -0.2346 -0.2346
vn 0.0000 -0.7071 -0.7071
vn -0.9434 -0.2346 -0.2346
vn 0.5573 -0.5871 -0.5871
vn -0.5573 -0.5871 -0.5871
vn 0.9434 0.0000 -0.3318
vn -0.9434 0.0000 -0.3318
vn 0.5573 0.0000 -0.8303
vn -0.5573 0.0000 -0.8303
vn 0.9434 0.2346 -0.2346
vn 0.0000 0.7071 -0.7071
vn -0.9434 0.2346 -0.2346
vn 0.5573 0.5871 -0.5871
vn -0.5573 0.5871 -0.5871
vn 0.9434 0.3318 -0.0000
vn 0.0000 1.0000 0.0000
vn -0.9434 0.3318 -0.0000
vn 0.5573 0.8303 0.0000
vn -0.5573 0.8303 0.0000
vn 0.9434 0.2346 0.2346
vn -0.0000 0.7071 0.7071
vn -0.9434 0.2346 0.2346
vn 0.5573 0.5871 0.5871
vn -0.5573 0.5871 0.5871
vn 0.9434 0.0000 0.3318
vn -0.9434 0.0000 0.3318
vn 0.5573 0.0000 0.8303
vn -0.5573 0.0000 0.8303
usemtl None
s off
f 1//1 2//1 4//1 3//1
f 3//2 4//2 6//2 5//2
f 5//3 6//3 8//3 7//3
f 7//4 8//4 10//4 9//4
f 9//5 10//5 12//5 11//5
f 11//6 12//6 14//6 13//6
f 13//7 14//7 16//7 15//7
f 15//8 16//8 18//8 17//8
f 4//9 2//9 20//9 18//9 16//9 14//9 12//9 10//9 8//9 6//9
f 17//10 18//10 20//10 19//10
f 19//11 20//11 2//11 1//11
f 1//12 3//12 5//12 7//12 9//12 11//12 13//12 15//12 17//12 19//12
f 36//13 54//13 27//13
f 23//14 22//14 25//14 26//14
f 21//15 45//15 24//15
f 54//16 23//16 26//16 27//16
f 22//17 21//17 24//17 25//17
f 36//18 27//18 31//18
f 26//19 25//19 29//19 30//19
f 24//20 45//20 28//20
f 27//21 26//21 30//21 31//21
f 25//22 24//22 28//22 29//22
f 36//23 31//23 35//23
f 30//24 29//24 33//24 34//24
f 28//25 45//25 32//25
f 31//26 30//26 34//26 35//26
f 29//27 28//27 32//27 33//27
f 36//28 35//28 40//28
f 34//9 33//9 38//9 39//9
f 32//29 45//29 37//29
f 35//30 34//30 39//30 40//30
f 33//31 32//31 37//31 38//31
f 36//32 40//32 44//32
f 39//33 38//33 42//33 43//33
f 37//34 45//34 41//34
f 40//35 39//35 43//35 44//35
f 38//36 37//36 41//36 42//36
f 36//37 44//37 49//37
f 43//38 42//38 47//38 48//38
f 41//39 45//39 46//39
f 44//40 43//40 48//40 49//40
f 42//41 41//41 46//41 47//41
f 36//42 49//42 53//42
f 48//43 47//43 51//43 52//43
f 46//44 45//44 50//44
f 49//45 48//45 52//45 53//45
f 47//46 46//46 50//46 51//46
f 36//47 53//47 54//47
f 52//12 51//12 22//12 23//12
f 50//48 45//48 21//48
f 53//49 52//49 23//49 54//49
f 51//50 50//50 21//50 22//50
